{
	"asset":
	{
		"version": "2.0",
		"generator": "Unreal Engine 5.1.0 glTF Exporter 1.3.1"
	},
	"scene": 0,
	"accessors": [
		{
			"bufferView": 0,
			"count": 12288,
			"type": "SCALAR",
			"componentType": 5123
		},
		{
			"bufferView": 1,
			"count": 2292,
			"type": "VEC3",
			"componentType": 5126,
			"min": [ -0.222008929, 3.27472691e-07, -0.23061128 ],
			"max": [ 0.22123313, 0.41074717, 0.246215448 ]
		},
		{
			"bufferView": 2,
			"count": 2292,
			"type": "VEC3",
			"componentType": 5126
		},
		{
			"bufferView": 3,
			"count": 2292,
			"type": "VEC4",
			"componentType": 5126
		},
		{
			"bufferView": 4,
			"count": 2292,
			"type": "VEC2",
			"componentType": 5126
		},
		{
			"bufferView": 5,
			"count": 2292,
			"type": "VEC2",
			"componentType": 5126
		},
		{
			"bufferView": 6,
			"count": 76620,
			"type": "SCALAR",
			"componentType": 5123
		},
		{
			"bufferView": 7,
			"count": 13313,
			"type": "VEC3",
			"componentType": 5126,
			"min": [ -0.259196401, 0.408448368, -0.285497785 ],
			"max": [ 0.259195298, 0.839443564, 0.14571996 ]
		},
		{
			"bufferView": 8,
			"count": 13313,
			"type": "VEC3",
			"componentType": 5126
		},
		{
			"bufferView": 9,
			"count": 13313,
			"type": "VEC4",
			"componentType": 5126
		},
		{
			"bufferView": 10,
			"count": 13313,
			"type": "VEC2",
			"componentType": 5126
		},
		{
			"bufferView": 11,
			"count": 13313,
			"type": "VEC2",
			"componentType": 5126
		},
		{
			"bufferView": 12,
			"count": 10098,
			"type": "SCALAR",
			"componentType": 5123
		},
		{
			"bufferView": 13,
			"count": 3239,
			"type": "VEC3",
			"componentType": 5126,
			"min": [ -0.149703428, 0.38821888, -0.170547679 ],
			"max": [ -0.114367262, 0.401409209, -0.167754203 ]
		},
		{
			"bufferView": 14,
			"count": 3239,
			"type": "VEC3",
			"componentType": 5126
		},
		{
			"bufferView": 15,
			"count": 3239,
			"type": "VEC4",
			"componentType": 5126
		},
		{
			"bufferView": 16,
			"count": 3239,
			"type": "VEC2",
			"componentType": 5126
		},
		{
			"bufferView": 17,
			"count": 3239,
			"type": "VEC2",
			"componentType": 5126
		},
		{
			"bufferView": 18,
			"count": 24768,
			"type": "SCALAR",
			"componentType": 5123
		},
		{
			"bufferView": 19,
			"count": 4330,
			"type": "VEC3",
			"componentType": 5126,
			"min": [ -0.239741802, 0.408254385, -0.203859016 ],
			"max": [ 0.239220425, 0.511344075, 0.280400097 ]
		},
		{
			"bufferView": 20,
			"count": 4330,
			"type": "VEC3",
			"componentType": 5126
		},
		{
			"bufferView": 21,
			"count": 4330,
			"type": "VEC4",
			"componentType": 5126
		},
		{
			"bufferView": 22,
			"count": 4330,
			"type": "VEC2",
			"componentType": 5126
		},
		{
			"bufferView": 23,
			"count": 4330,
			"type": "VEC2",
			"componentType": 5126
		}
	],
	"buffers": [
		{
			"uri": "Lux Pro.bin",
			"byteLength": 1545292
		}
	],
	"bufferViews": [
		{
			"buffer": 0,
			"byteLength": 24576,
			"target": 34963
		},
		{
			"buffer": 0,
			"byteLength": 27504,
			"byteOffset": 24576,
			"target": 34962
		},
		{
			"buffer": 0,
			"byteLength": 27504,
			"byteOffset": 52080,
			"target": 34962
		},
		{
			"buffer": 0,
			"byteLength": 36672,
			"byteOffset": 79584,
			"target": 34962
		},
		{
			"buffer": 0,
			"byteLength": 18336,
			"byteOffset": 116256,
			"target": 34962
		},
		{
			"buffer": 0,
			"byteLength": 18336,
			"byteOffset": 134592,
			"target": 34962
		},
		{
			"buffer": 0,
			"byteLength": 153240,
			"byteOffset": 152928,
			"target": 34963
		},
		{
			"buffer": 0,
			"byteLength": 159756,
			"byteOffset": 306168,
			"target": 34962
		},
		{
			"buffer": 0,
			"byteLength": 159756,
			"byteOffset": 465924,
			"target": 34962
		},
		{
			"buffer": 0,
			"byteLength": 213008,
			"byteOffset": 625680,
			"target": 34962
		},
		{
			"buffer": 0,
			"byteLength": 106504,
			"byteOffset": 838688,
			"target": 34962
		},
		{
			"buffer": 0,
			"byteLength": 106504,
			"byteOffset": 945192,
			"target": 34962
		},
		{
			"buffer": 0,
			"byteLength": 20196,
			"byteOffset": 1051696,
			"target": 34963
		},
		{
			"buffer": 0,
			"byteLength": 38868,
			"byteOffset": 1071892,
			"target": 34962
		},
		{
			"buffer": 0,
			"byteLength": 38868,
			"byteOffset": 1110760,
			"target": 34962
		},
		{
			"buffer": 0,
			"byteLength": 51824,
			"byteOffset": 1149628,
			"target": 34962
		},
		{
			"buffer": 0,
			"byteLength": 25912,
			"byteOffset": 1201452,
			"target": 34962
		},
		{
			"buffer": 0,
			"byteLength": 25912,
			"byteOffset": 1227364,
			"target": 34962
		},
		{
			"buffer": 0,
			"byteLength": 49536,
			"byteOffset": 1253276,
			"target": 34963
		},
		{
			"buffer": 0,
			"byteLength": 51960,
			"byteOffset": 1302812,
			"target": 34962
		},
		{
			"buffer": 0,
			"byteLength": 51960,
			"byteOffset": 1354772,
			"target": 34962
		},
		{
			"buffer": 0,
			"byteLength": 69280,
			"byteOffset": 1406732,
			"target": 34962
		},
		{
			"buffer": 0,
			"byteLength": 34640,
			"byteOffset": 1476012,
			"target": 34962
		},
		{
			"buffer": 0,
			"byteLength": 34640,
			"byteOffset": 1510652,
			"target": 34962
		}
	],
	"images": [
		{
			"uri": "WorldGridMaterial_BaseColor.png"
		},
		{
			"uri": "WorldGridMaterial_MetallicRoughness.png"
		},
		{
			"uri": "WorldGridMaterial_Normal.png"
		}
	],
	"materials": [
		{
			"name": "WorldGridMaterial",
			"pbrMetallicRoughness":
			{
				"baseColorTexture":
				{
					"index": 0
				},
				"metallicRoughnessTexture":
				{
					"index": 1
				}
			},
			"normalTexture":
			{
				"index": 2
			}
		}
	],
	"meshes": [
		{
			"name": "Lux_Pro_Chair_Lux_Pro_Chair_-_Legs",
			"primitives": [
				{
					"attributes":
					{
						"POSITION": 1,
						"NORMAL": 2,
						"TANGENT": 3,
						"TEXCOORD_0": 4,
						"TEXCOORD_1": 5
					},
					"indices": 0,
					"material": 0
				}
			]
		},
		{
			"name": "Lux_Pro_Chair_LuxPro_Chair_-_Back",
			"primitives": [
				{
					"attributes":
					{
						"POSITION": 7,
						"NORMAL": 8,
						"TANGENT": 9,
						"TEXCOORD_0": 10,
						"TEXCOORD_1": 11
					},
					"indices": 6,
					"material": 0
				}
			]
		},
		{
			"name": "Lux_Pro_Chair_LuxPro_Chair_-_Logo",
			"primitives": [
				{
					"attributes":
					{
						"POSITION": 13,
						"NORMAL": 14,
						"TANGENT": 15,
						"TEXCOORD_0": 16,
						"TEXCOORD_1": 17
					},
					"indices": 12,
					"material": 0
				}
			]
		},
		{
			"name": "Lux_Pro_Chair_LuxPro_Chair_-_Seat",
			"primitives": [
				{
					"attributes":
					{
						"POSITION": 19,
						"NORMAL": 20,
						"TANGENT": 21,
						"TEXCOORD_0": 22,
						"TEXCOORD_1": 23
					},
					"indices": 18,
					"material": 0
				}
			]
		}
	],
	"nodes": [
		{
			"name": "StaticMeshActor_4_StaticMeshComponent0",
			"translation": [ 10.5999994, 3.5, -7.5999999 ],
			"mesh": 0
		},
		{
			"name": "StaticMeshActor_5_StaticMeshComponent0",
			"translation": [ 10.5999994, 3.5, -7.5999999 ],
			"mesh": 1
		},
		{
			"name": "StaticMeshActor_6_StaticMeshComponent0",
			"translation": [ 10.5999994, 3.5, -7.5999999 ],
			"mesh": 2
		},
		{
			"name": "StaticMeshActor_7_StaticMeshComponent0",
			"translation": [ 10.5999994, 3.5, -7.5999999 ],
			"mesh": 3
		}
	],
	"samplers": [
		{
			"name": "WorldGridMaterial_BaseColor",
			"minFilter": 9987,
			"magFilter": 9729
		},
		{
			"name": "WorldGridMaterial_MetallicRoughness",
			"minFilter": 9987,
			"magFilter": 9729
		},
		{
			"name": "WorldGridMaterial_Normal",
			"minFilter": 9987,
			"magFilter": 9729
		}
	],
	"scenes": [
		{
			"name": "Untitled",
			"nodes": [ 0, 1, 2, 3 ]
		}
	],
	"textures": [
		{
			"name": "WorldGridMaterial_BaseColor",
			"sampler": 0,
			"source": 0
		},
		{
			"name": "WorldGridMaterial_MetallicRoughness",
			"sampler": 1,
			"source": 1
		},
		{
			"name": "WorldGridMaterial_Normal",
			"sampler": 2,
			"source": 2
		}
	]
}